<?xml version="1.0" encoding="utf-8"?>
<svg version="1.1" xmlns:xlink="http://www.w3.org/1999/xlink" width="15px" height="11px" xmlns="http://www.w3.org/2000/svg">
  <g transform="matrix(1 0 0 1 -30 -244 )">
    <path d="M 6.507568359375 7.04329427083333  C 6.544189453125 7.26529947916667  6.5625 7.50520833333333  6.5625 7.76302083333333  C 6.5625 8.02560763888889  6.485595703125 8.24880642361111  6.331787109375 8.4326171875  C 6.177978515625 8.61642795138889  5.99365234375 8.70833333333333  5.77880859375 8.70833333333333  L 2.65869140625 8.70833333333333  C 2.44384765625 8.70833333333333  2.259521484375 8.61642795138889  2.105712890625 8.4326171875  C 1.951904296875 8.24880642361111  1.875 8.02560763888889  1.875 7.76302083333333  C 1.875 7.50520833333333  1.893310546875 7.26529947916667  1.929931640625 7.04329427083333  C 1.966552734375 6.8212890625  2.0263671875 6.6064453125  2.109375 6.39876302083333  C 2.1923828125 6.19108072916667  2.31689453125 6.02756076388889  2.48291015625 5.908203125  C 2.64892578125 5.78884548611111  2.8466796875 5.72916666666667  3.076171875 5.72916666666667  C 3.388671875 6.03472222222222  3.76953125 6.1875  4.21875 6.1875  C 4.66796875 6.1875  5.048828125 6.03472222222222  5.361328125 5.72916666666667  C 5.5908203125 5.72916666666667  5.78857421875 5.78884548611111  5.95458984375 5.908203125  C 6.12060546875 6.02756076388889  6.2451171875 6.19108072916667  6.328125 6.39876302083333  C 6.4111328125 6.6064453125  6.470947265625 6.8212890625  6.507568359375 7.04329427083333  Z M 5.21484375 3.609375  C 5.48828125 3.87673611111111  5.625 4.20138888888889  5.625 4.58333333333333  C 5.625 4.96527777777778  5.48828125 5.28993055555556  5.21484375 5.55729166666667  C 4.94140625 5.82465277777778  4.609375 5.95833333333333  4.21875 5.95833333333333  C 3.828125 5.95833333333333  3.49609375 5.82465277777778  3.22265625 5.55729166666667  C 2.94921875 5.28993055555556  2.8125 4.96527777777778  2.8125 4.58333333333333  C 2.8125 4.20138888888889  2.94921875 3.87673611111111  3.22265625 3.609375  C 3.49609375 3.34201388888889  3.828125 3.20833333333333  4.21875 3.20833333333333  C 4.609375 3.20833333333333  4.94140625 3.34201388888889  5.21484375 3.609375  Z M 13.05908203125 7.39778645833333  C 13.10302734375 7.44075520833333  13.125 7.49565972222222  13.125 7.5625  L 13.125 8.02083333333333  C 13.125 8.08767361111111  13.10302734375 8.142578125  13.05908203125 8.185546875  C 13.01513671875 8.228515625  12.958984375 8.25  12.890625 8.25  L 7.734375 8.25  C 7.666015625 8.25  7.60986328125 8.228515625  7.56591796875 8.185546875  C 7.52197265625 8.142578125  7.5 8.08767361111111  7.5 8.02083333333333  L 7.5 7.5625  C 7.5 7.49565972222222  7.52197265625 7.44075520833333  7.56591796875 7.39778645833333  C 7.60986328125 7.35481770833333  7.666015625 7.33333333333333  7.734375 7.33333333333333  L 12.890625 7.33333333333333  C 12.958984375 7.33333333333333  13.01513671875 7.35481770833333  13.05908203125 7.39778645833333  Z M 10.24658203125 5.564453125  C 10.29052734375 5.607421875  10.3125 5.66232638888889  10.3125 5.72916666666667  L 10.3125 6.1875  C 10.3125 6.25434027777778  10.29052734375 6.30924479166667  10.24658203125 6.35221354166667  C 10.20263671875 6.39518229166667  10.146484375 6.41666666666667  10.078125 6.41666666666667  L 7.734375 6.41666666666667  C 7.666015625 6.41666666666667  7.60986328125 6.39518229166667  7.56591796875 6.35221354166667  C 7.52197265625 6.30924479166667  7.5 6.25434027777778  7.5 6.1875  L 7.5 5.72916666666667  C 7.5 5.66232638888889  7.52197265625 5.607421875  7.56591796875 5.564453125  C 7.60986328125 5.521484375  7.666015625 5.5  7.734375 5.5  L 10.078125 5.5  C 10.146484375 5.5  10.20263671875 5.521484375  10.24658203125 5.564453125  Z M 13.05908203125 5.564453125  C 13.10302734375 5.607421875  13.125 5.66232638888889  13.125 5.72916666666667  L 13.125 6.1875  C 13.125 6.25434027777778  13.10302734375 6.30924479166667  13.05908203125 6.35221354166667  C 13.01513671875 6.39518229166667  12.958984375 6.41666666666667  12.890625 6.41666666666667  L 11.484375 6.41666666666667  C 11.416015625 6.41666666666667  11.35986328125 6.39518229166667  11.31591796875 6.35221354166667  C 11.27197265625 6.30924479166667  11.25 6.25434027777778  11.25 6.1875  L 11.25 5.72916666666667  C 11.25 5.66232638888889  11.27197265625 5.607421875  11.31591796875 5.564453125  C 11.35986328125 5.521484375  11.416015625 5.5  11.484375 5.5  L 12.890625 5.5  C 12.958984375 5.5  13.01513671875 5.521484375  13.05908203125 5.564453125  Z M 13.05908203125 3.73111979166667  C 13.10302734375 3.77408854166667  13.125 3.82899305555556  13.125 3.89583333333333  L 13.125 4.35416666666667  C 13.125 4.42100694444444  13.10302734375 4.47591145833333  13.05908203125 4.51888020833333  C 13.01513671875 4.56184895833333  12.958984375 4.58333333333333  12.890625 4.58333333333333  L 7.734375 4.58333333333333  C 7.666015625 4.58333333333333  7.60986328125 4.56184895833333  7.56591796875 4.51888020833333  C 7.52197265625 4.47591145833333  7.5 4.42100694444444  7.5 4.35416666666667  L 7.5 3.89583333333333  C 7.5 3.82899305555556  7.52197265625 3.77408854166667  7.56591796875 3.73111979166667  C 7.60986328125 3.68815104166667  7.666015625 3.66666666666667  7.734375 3.66666666666667  L 12.890625 3.66666666666667  C 12.958984375 3.66666666666667  13.01513671875 3.68815104166667  13.05908203125 3.73111979166667  Z M 13.992919921875 10.0152994791667  C 14.039306640625 9.96994357638889  14.0625 9.91623263888889  14.0625 9.85416666666667  L 14.0625 2  L 0.9375 2  L 0.9375 9.85416666666667  C 0.9375 9.91623263888889  0.960693359375 9.96994357638889  1.007080078125 10.0152994791667  C 1.053466796875 10.0606553819444  1.1083984375 10.0833333333333  1.171875 10  L 13.828125 10  C 13.8916015625 10.0833333333333  13.946533203125 10.0606553819444  13.992919921875 10.0152994791667  Z M 14.65576171875 0.336588541666667  C 14.88525390625 0.560980902777777  15 0.830729166666667  15 1.14583333333333  L 15 9.85416666666667  C 15 10.1692708333333  14.88525390625 10.4390190972222  14.65576171875 10.6634114583333  C 14.42626953125 10.8878038194444  14.150390625 11  13.828125 11  L 1.171875 11  C 0.849609375 11  0.57373046875 10.8878038194444  0.34423828125 10.6634114583333  C 0.11474609375 10.4390190972222  0 10.1692708333333  0 9.85416666666667  L 0 1.14583333333333  C 0 0.830729166666667  0.11474609375 0.560980902777777  0.34423828125 0.336588541666667  C 0.57373046875 0.112196180555554  0.849609375 0  1.171875 0  L 13.828125 0  C 14.150390625 0  14.42626953125 0.112196180555554  14.65576171875 0.336588541666667  Z " fill-rule="nonzero" fill="#aaaaaa" stroke="none" transform="matrix(1 0 0 1 30 244 )" />
  </g>
</svg>